<?xml version="1.0" encoding="UTF-8" standalone="no"?>
<!DOCTYPE svg PUBLIC "-//W3C//DTD SVG 1.1//EN" "http://www.w3.org/Graphics/SVG/1.1/DTD/svg11.dtd">
<!-- Created with Vectornator (http://vectornator.io/) -->
<svg height="780.0000000000001pt" stroke-miterlimit="10" style="fill-rule:nonzero;clip-rule:evenodd;stroke-linecap:round;stroke-linejoin:round;" version="1.1" viewBox="0 0 780 780" width="780.0000000000001pt" xml:space="preserve" xmlns="http://www.w3.org/2000/svg" xmlns:vectornator="http://vectornator.io" xmlns:xlink="http://www.w3.org/1999/xlink">
<defs>
<path d="M48.7083 390.249C48.7083 196.949 205.409 40.2489 398.708 40.2489C592.008 40.2489 748.708 196.949 748.708 390.249C748.708 583.549 592.008 740.249 398.708 740.249C205.409 740.249 48.7083 583.549 48.7083 390.249Z" id="Fill"/>
<linearGradient gradientTransform="matrix(4.1638e-14 680 680 -4.1638e-14 398.708 50.2489)" gradientUnits="userSpaceOnUse" id="LinearGradient" x1="0" x2="1" y1="0" y2="0">
<stop offset="0.601877" stop-color="#7cb5f3"/>
<stop offset="1" stop-color="#a17559"/>
</linearGradient>
<path d="M398.708 164.884C273.69 164.884 172.343 266.231 172.343 391.249C172.343 516.267 273.69 617.614 398.708 617.614C523.726 617.614 625.074 516.267 625.074 391.249C625.074 266.231 523.726 164.884 398.708 164.884Z" id="Fill_2"/>
<path d="M398.708 50.2489C210.931 50.2489 58.7083 202.472 58.7083 390.249C58.7083 578.026 210.931 730.249 398.708 730.249C586.485 730.249 738.708 578.026 738.708 390.249C738.708 202.472 586.485 50.2489 398.708 50.2489Z" id="Fill_3"/>
<linearGradient gradientTransform="matrix(4.1638e-14 680 680 -4.1638e-14 398.708 50.2489)" gradientUnits="userSpaceOnUse" id="LinearGradient_2" x1="0" x2="1" y1="0" y2="0">
<stop offset="0.601877" stop-color="#7cb5f3" stop-opacity="0"/>
<stop offset="1" stop-color="#a17559" stop-opacity="0"/>
</linearGradient>
</defs>
<g id="Layer-2" vectornator:layerName="Layer 2">
<g opacity="1" vectornator:layerName="Oval 1">
<use fill="#3395ff" fill-opacity="0" fill-rule="nonzero" stroke="none" xlink:href="#Fill"/>
<mask height="740" id="StrokeMask" maskUnits="userSpaceOnUse" width="740" x="28.7083" y="20.2489">
<rect fill="#ffffff" height="740" stroke="none" width="740" x="28.7083" y="20.2489"/>
<use fill="#000000" fill-rule="evenodd" stroke="none" xlink:href="#Fill"/>
</mask>
<use fill="none" mask="url(#StrokeMask)" stroke="#dc7d3f" stroke-linecap="butt" stroke-linejoin="round" stroke-width="40" xlink:href="#Fill"/>
</g>
</g>
<g id="Layer-2-copy" vectornator:layerName="Layer 2 copy">
<path d="M398.708 50.2489C210.931 50.2489 58.7083 202.472 58.7083 390.249C58.7083 578.026 210.931 730.249 398.708 730.249C586.485 730.249 738.708 578.026 738.708 390.249C738.708 202.472 586.485 50.2489 398.708 50.2489Z" fill="url(#LinearGradient)" fill-rule="nonzero" opacity="1" stroke="none" vectornator:layerName="Oval 1"/>
</g>
<g id="Layer-2-copy-copy" vectornator:layerName="Layer 2 copy copy">
<g opacity="1" vectornator:layerName="Oval 1">
<use fill="#dd6430" fill-rule="nonzero" stroke="none" xlink:href="#Fill_2"/>
<mask height="468.731" id="StrokeMask_2" maskUnits="userSpaceOnUse" width="468.731" x="164.343" y="156.884">
<rect fill="#ffffff" height="468.731" stroke="none" width="468.731" x="164.343" y="156.884"/>
<use fill="#000000" fill-rule="evenodd" stroke="none" xlink:href="#Fill_2"/>
</mask>
<use fill="none" mask="url(#StrokeMask_2)" stroke="#3f4a54" stroke-linecap="butt" stroke-linejoin="round" stroke-opacity="0.9" stroke-width="16" xlink:href="#Fill_2"/>
</g>
</g>
<g id="Layer-2-copy-copy-copy" vectornator:layerName="Layer 2 copy copy copy">
<path d="M398.708 274.785C334.387 274.785 282.245 326.928 282.245 391.249C282.245 455.57 334.387 507.713 398.708 507.713C463.029 507.713 515.172 455.57 515.172 391.249C515.172 326.928 463.029 274.785 398.708 274.785Z" fill="#ffbd47" fill-rule="nonzero" opacity="1" stroke="none" vectornator:layerName="Oval 1"/>
</g>
<g id="Layer-2-copy-copy_2" vectornator:layerName="Layer 2 copy copy"/>
<g id="Layer-3" vectornator:layerName="Layer 3">
<g opacity="1" vectornator:layerName="Group 1">
<use fill="url(#LinearGradient_2)" fill-rule="nonzero" opacity="1" stroke="none" vectornator:layerName="Oval 1" xlink:href="#Fill_3"/>
<clipPath clip-rule="nonzero" id="ClipPath">
<use xlink:href="#Fill_3"/>
</clipPath>
<g clip-path="url(#ClipPath)">
<path d="M141.857 616.614L660.578 616.614L660.578 775.862L141.857 775.862L141.857 616.614Z" fill="#20567e" fill-rule="nonzero" opacity="1" stroke="none" vectornator:layerName="Rectangle 1"/>
<g opacity="1" vectornator:layerName="Bridge">
<path d="M750.16 354.398C685.013 332.361 644.439 292.234 644.439 248.818C644.439 243.226 637.009 238.95 627.295 238.95C617.58 238.95 610.151 243.226 610.151 248.818C610.151 315.915 515.287 370.514 398.708 370.514C282.129 370.514 187.266 315.915 187.266 248.818C187.266 243.226 179.837 238.95 170.122 238.95C160.407 238.95 152.978 243.226 152.978 248.818C152.978 292.234 112.404 332.361 47.2569 354.069C39.2564 356.7 36.3991 362.949 40.9708 367.554C45.5425 372.159 56.4004 373.803 64.4009 371.172C112.975 355.055 150.121 329.729 170.122 300.456C189.552 328.414 223.84 352.095 267.843 368.212C267.843 368.87 267.271 369.528 267.271 370.185L267.271 472.148C267.271 477.739 274.7 482.015 284.415 482.015C294.13 482.015 301.559 477.739 301.559 472.148L301.559 378.737C326.132 384.986 353.563 388.933 381.564 389.92L381.564 472.476C381.564 478.068 388.993 482.344 398.708 482.344C408.423 482.344 415.852 478.068 415.852 472.476L415.852 389.92C443.854 388.933 471.284 384.986 495.857 378.737L495.857 472.476C495.857 478.068 503.287 482.344 513.001 482.344C522.716 482.344 530.145 478.068 530.145 472.476L530.145 370.514C530.145 369.856 530.145 369.199 529.574 368.541C573.577 352.424 607.865 328.743 627.295 300.785C647.296 330.058 684.441 355.384 733.016 371.501C741.016 374.132 751.874 372.488 756.446 367.883C761.018 362.949 758.16 357.029 750.16 354.398Z" fill="#3f4a54" fill-rule="nonzero" opacity="1" stroke="none" vectornator:layerName="path"/>
<path d="M135.834 248.818L204.41 248.818L204.41 511.946L135.834 511.946L135.834 248.818Z" fill="#ffffff" fill-rule="nonzero" opacity="1" stroke="none" vectornator:layerName="path"/>
<path d="M135.834 248.818L204.41 248.818L204.41 511.946L135.834 511.946L135.834 248.818ZM101.546 511.946L162.122 511.946L238.698 511.946L238.698 544.837L238.698 544.837L101.546 544.837L101.546 511.946ZM558.719 511.946L619.294 511.946L695.87 511.946L695.87 544.837L695.87 544.837L558.719 544.837L558.719 511.946ZM593.007 248.818L661.583 248.818L661.583 511.946L593.007 511.946L593.007 248.818Z" fill="#ffffff" fill-rule="nonzero" opacity="1" stroke="none" vectornator:layerName="path"/>
<path d="M741.588 502.078L678.726 502.078L678.726 248.818C678.726 243.226 671.297 238.95 661.583 238.95L644.439 238.95L644.439 192.903C644.439 187.311 637.009 183.035 627.295 183.035C617.58 183.035 610.151 187.311 610.151 192.903L610.151 238.95L593.007 238.95C583.292 238.95 575.863 243.226 575.863 248.818L575.863 502.078L221.554 502.078L221.554 248.818C221.554 243.226 214.125 238.95 204.41 238.95L187.266 238.95L187.266 192.903C187.266 187.311 179.837 183.035 170.122 183.035C160.407 183.035 152.978 187.311 152.978 192.903L152.978 238.95L135.834 238.95C126.119 238.95 118.69 243.226 118.69 248.818L118.69 502.078L55.8289 502.078C46.114 502.078 38.6849 506.354 38.6849 511.946C38.6849 517.537 46.114 521.813 55.8289 521.813L84.4022 521.813L84.4022 541.548C84.4022 547.139 91.8312 551.415 101.546 551.415C111.261 551.415 118.69 547.139 118.69 541.548L118.69 521.813L221.554 521.813L221.554 541.548C221.554 547.139 228.983 551.415 238.698 551.415C248.413 551.415 255.842 547.139 255.842 541.548L255.842 521.813L541.575 521.813L541.575 541.548C541.575 547.139 549.004 551.415 558.719 551.415C568.434 551.415 575.863 547.139 575.863 541.548L575.863 521.813L678.726 521.813L678.726 544.837C678.726 550.428 686.156 554.704 695.87 554.704C705.585 554.704 713.014 550.428 713.014 544.837L713.014 521.813L741.588 521.813C751.303 521.813 758.732 517.537 758.732 511.946C758.732 506.354 751.303 502.078 741.588 502.078ZM187.266 502.078L152.978 502.078L152.978 258.685L187.266 258.685L187.266 502.078ZM644.439 502.078L610.151 502.078L610.151 258.685L644.439 258.685L644.439 502.078Z" fill="#3f4a54" fill-rule="nonzero" opacity="1" stroke="none" vectornator:layerName="path"/>
<path d="M482.714 597.462C482.142 597.462 482.142 597.462 481.571 597.462C459.284 597.462 438.711 592.858 422.138 584.964C405.566 592.858 384.993 597.133 362.706 597.133C340.99 597.133 319.846 592.858 303.274 584.964C286.701 592.858 266.128 597.133 243.841 597.133C221.554 597.133 200.981 592.858 184.409 584.964C167.836 592.858 147.263 597.133 124.976 597.133C96.403 597.133 70.1156 589.897 52.4001 577.07C46.6855 572.794 47.8284 566.545 55.2574 563.256C62.6865 559.967 73.5443 560.624 79.259 564.9C90.6883 572.794 107.261 577.399 124.976 577.399C142.692 577.399 159.836 572.794 170.694 564.9C174.122 562.598 178.694 561.282 183.837 561.282C188.98 561.282 194.124 562.598 196.981 564.9C208.41 572.794 224.983 577.399 242.698 577.399C260.414 577.399 277.558 572.794 288.415 564.9C291.844 562.598 296.416 561.282 301.559 561.282C306.702 561.282 311.846 562.598 314.703 564.9C326.132 572.794 342.705 577.399 360.42 577.399C378.136 577.399 395.28 572.794 406.137 564.9C409.566 562.598 414.138 561.282 419.281 561.282C424.424 561.282 429.567 562.598 432.425 564.9C443.854 573.123 460.427 577.728 478.714 577.728L479.285 577.728C497 577.728 514.144 573.123 525.574 565.229L530.145 564.571C533.574 562.269 538.146 560.953 543.289 560.953C548.432 560.953 553.004 562.269 556.433 564.571C567.862 572.465 584.435 577.07 602.15 577.07C602.722 577.07 602.722 577.07 603.293 577.07C621.008 577.07 637.009 572.465 648.439 564.571C654.153 560.295 665.011 559.638 672.44 562.927C679.869 566.216 681.012 572.465 675.298 576.741C657.582 589.568 631.295 596.804 602.722 596.804C602.15 596.804 602.15 596.804 601.579 596.804C579.863 596.804 559.862 592.2 543.289 584.635C526.145 592.858 505.001 597.462 482.714 597.462ZM730.158 577.728C720.69 577.728 713.014 582.145 713.014 587.595C713.014 593.045 720.69 597.462 730.158 597.462C739.627 597.462 747.302 593.045 747.302 587.595C747.302 582.145 739.627 577.728 730.158 577.728Z" fill="#71c2ff" fill-rule="nonzero" opacity="1" stroke="none" vectornator:layerName="path"/>
<path d="M461.827 614.614C461.254 614.614 461.254 614.614 460.682 614.614C438.347 614.614 420.681 610.087 409.131 602.326C387.466 610.087 364.11 614.291 341.775 614.291C320.013 614.291 301.564 610.087 290.014 602.326C268.348 610.087 244.992 614.291 222.658 614.291C200.323 614.291 182.446 610.087 170.897 602.326C149.231 610.087 125.875 614.291 103.54 614.291C74.9064 614.291 53.1996 607.176 43.6658 594.565C40.6788 590.361 45.8284 584.217 55.3807 580.983C64.933 577.749 75.3924 578.396 78.3795 582.6C84.7751 590.361 98.4323 594.888 116.185 594.888C133.938 594.888 154.069 590.361 170.008 582.6C174.92 580.336 180.344 579.042 185.498 579.042C190.652 579.042 194.963 580.336 196.351 582.6C202.747 590.361 216.404 594.888 234.157 594.888C251.91 594.888 272.041 590.361 287.98 582.6C292.891 580.336 298.316 579.042 303.47 579.042C308.624 579.042 312.935 580.336 314.323 582.6C320.719 590.361 334.376 594.888 352.129 594.888C369.882 594.888 390.013 590.361 405.952 582.6C410.863 580.336 416.288 579.042 421.442 579.042C426.596 579.042 430.907 580.336 432.295 582.6C438.48 590.684 452.137 595.211 470.463 595.211L471.036 595.211C488.789 595.211 508.92 590.684 525.431 582.923L530.434 582.276C535.346 580.013 540.77 578.719 545.924 578.719C551.078 578.719 554.817 580.013 556.778 582.276C563.173 590.037 576.83 594.565 594.583 594.565C595.156 594.565 595.156 594.565 595.729 594.565C613.482 594.565 632.467 590.037 648.979 582.276C657.445 578.072 668.748 577.426 674.085 580.659C679.423 583.893 676.564 590.037 668.097 594.241C642.125 606.853 611.145 613.967 582.511 613.967C581.938 613.967 581.938 613.967 581.366 613.967C559.604 613.967 542.511 609.44 530.75 602.002C508.301 610.087 484.161 614.614 461.827 614.614ZM722.442 595.211C712.954 595.211 702.431 599.555 698.939 604.913C695.447 610.271 700.309 614.614 709.797 614.614C719.286 614.614 729.808 610.271 733.3 604.913C736.792 599.555 731.931 595.211 722.442 595.211Z" fill="#1c6eab" fill-rule="nonzero" opacity="1" stroke="none" vectornator:layerName="path 3"/>
<path d="M494.971 629.886C494.392 629.886 494.392 629.886 493.812 629.886C471.207 629.886 447.75 625.359 426.499 617.598C414.131 625.359 395.671 629.563 373.065 629.563C351.04 629.563 327.188 625.359 305.937 617.598C293.57 625.359 275.109 629.563 252.503 629.563C229.898 629.563 206.626 625.359 185.375 617.598C173.008 625.359 154.547 629.563 131.942 629.563C102.96 629.563 72.2264 622.448 47.041 609.836C38.839 605.633 36.4823 599.488 42.1668 596.255C47.8514 593.021 59.2344 593.667 67.4363 597.871C83.4701 605.633 102.87 610.16 120.838 610.16C138.807 610.16 153.605 605.633 160.176 597.871C162.359 595.608 166.255 594.314 171.472 594.314C176.689 594.314 182.645 595.608 186.839 597.871C202.873 605.633 222.273 610.16 240.241 610.16C258.209 610.16 273.007 605.633 279.579 597.871C281.761 595.608 285.658 594.314 290.875 594.314C296.091 594.314 302.048 595.608 306.242 597.871C322.275 605.633 341.675 610.16 359.644 610.16C377.612 610.16 392.41 605.633 398.981 597.871C401.164 595.608 405.061 594.314 410.277 594.314C415.494 594.314 421.451 595.608 425.644 597.871C441.863 605.956 461.263 610.483 479.811 610.483L480.39 610.483C498.359 610.483 513.157 605.956 520.308 598.195L524.575 597.548C526.757 595.284 530.654 593.991 535.871 593.991C541.087 593.991 546.465 595.284 551.238 597.548C567.271 605.309 586.671 609.836 604.64 609.836C605.219 609.836 605.219 609.836 605.799 609.836C623.767 609.836 637.406 605.309 644.557 597.548C647.948 593.344 658.59 592.697 667.976 595.931C677.362 599.165 682.037 605.309 678.646 609.513C667.895 622.125 645.304 629.239 616.322 629.239C615.743 629.239 615.743 629.239 615.163 629.239C593.137 629.239 570.26 624.712 549.195 617.274C536.432 625.359 517.577 629.886 494.971 629.886ZM734.846 610.483C725.242 610.483 719.942 614.827 723.008 620.185C726.075 625.543 736.345 629.886 745.949 629.886C755.552 629.886 760.852 625.543 757.786 620.185C754.72 614.827 744.449 610.483 734.846 610.483Z" fill="#1781d0" fill-rule="nonzero" opacity="1" stroke="none" vectornator:layerName="path 4"/>
<path d="M1675.97 163.884C1673.28 163.884 1673.28 163.884 1670.58 163.884C1565.48 163.884 1468.47 126.156 1390.32 61.48C1312.17 126.156 1215.15 161.189 1110.06 161.189C1007.65 161.189 907.944 126.156 829.794 61.48C751.644 126.156 654.63 161.189 549.531 161.189C444.433 161.189 347.419 126.156 269.269 61.48C191.119 126.156 94.1053 161.189-10.9931 161.189C-145.735 161.189-269.697 101.902-353.236-3.19587C-380.185-38.2287-374.795-89.4304-339.762-116.379C-304.73-143.327-253.528-137.937-226.579-102.905C-172.683-38.2287-94.5328-0.501043-10.9931-0.501043C72.5466-0.501043 153.392-38.2287 204.593-102.905C220.762-121.768 242.321-132.548 266.574-132.548C290.828-132.548 315.081-121.768 328.555-102.905C382.452-38.2287 460.602-0.501043 544.142-0.501043C627.682-0.501043 708.526-38.2287 759.728-102.905C775.897-121.768 797.456-132.548 821.709-132.548C845.963-132.548 870.216-121.768 883.69-102.905C937.587-38.2287 1015.74-0.501043 1099.28-0.501043C1182.82-0.501043 1263.66-38.2287 1314.86-102.905C1331.03-121.768 1352.59-132.548 1376.84-132.548C1401.1-132.548 1425.35-121.768 1438.83-102.905C1492.72-35.5338 1570.87 2.19379 1657.11 2.19379L1659.8 2.19379C1743.34 2.19379 1824.19-35.5338 1878.08-100.21L1899.64-105.599C1915.81-124.463 1937.37-135.243 1961.62-135.243C1985.88-135.243 2007.43-124.463 2023.6-105.599C2077.5-40.9235 2155.65-3.19587 2239.19-3.19587C2241.88-3.19587 2241.88-3.19587 2244.58-3.19587C2328.12-3.19587 2403.57-40.9235 2457.47-105.599C2484.42-140.632 2535.62-146.022 2570.65-119.074C2605.69-92.1253 2611.08-40.9235 2584.13-5.8907C2500.59 99.2077 2376.63 158.494 2241.88 158.494C2239.19 158.494 2239.19 158.494 2236.49 158.494C2134.09 158.494 2039.77 120.766 1961.62 58.7852C1880.78 126.156 1781.07 163.884 1675.97 163.884ZM2842.83 2.19379C2798.18 2.19379 2761.99 38.3893 2761.99 83.0387C2761.99 127.688 2798.18 163.884 2842.83 163.884C2887.48 163.884 2923.68 127.688 2923.68 83.0387C2923.68 38.3893 2887.48 2.19379 2842.83 2.19379Z" fill="#71c2ff" fill-rule="nonzero" opacity="1" stroke="none" vectornator:layerName="path 2"/>
<path d="M-236.592-186.751C-236.692-186.751-236.692-186.751-236.792-186.751C-240.692-186.751-244.292-188.151-247.192-190.551C-250.092-188.151-253.692-186.851-257.592-186.851C-261.392-186.851-265.092-188.151-267.992-190.551C-270.892-188.151-274.492-186.851-278.392-186.851C-282.292-186.851-285.892-188.151-288.792-190.551C-291.692-188.151-295.292-186.851-299.192-186.851C-304.192-186.851-308.792-189.051-311.892-192.951C-312.892-194.251-312.692-196.151-311.392-197.151C-310.092-198.151-308.192-197.951-307.192-196.651C-305.192-194.251-302.292-192.851-299.192-192.851C-296.092-192.851-293.092-194.251-291.192-196.651C-290.592-197.351-289.792-197.751-288.892-197.751C-287.992-197.751-287.092-197.351-286.592-196.651C-284.592-194.251-281.692-192.851-278.592-192.851C-275.492-192.851-272.492-194.251-270.592-196.651C-269.992-197.351-269.192-197.751-268.292-197.751C-267.392-197.751-266.492-197.351-265.992-196.651C-263.992-194.251-261.092-192.851-257.992-192.851C-254.892-192.851-251.892-194.251-249.992-196.651C-249.392-197.351-248.592-197.751-247.692-197.751C-246.792-197.751-245.892-197.351-245.392-196.651C-243.392-194.151-240.492-192.751-237.292-192.751L-237.192-192.751C-234.092-192.751-231.092-194.151-229.092-196.551L-228.292-196.751C-227.692-197.451-226.892-197.851-225.992-197.851C-225.092-197.851-224.292-197.451-223.692-196.751C-221.692-194.351-218.792-192.951-215.692-192.951C-215.592-192.951-215.592-192.951-215.492-192.951C-212.392-192.951-209.592-194.351-207.592-196.751C-206.592-198.051-204.692-198.251-203.392-197.251C-202.092-196.251-201.892-194.351-202.892-193.051C-205.992-189.151-210.592-186.951-215.592-186.951C-215.692-186.951-215.692-186.951-215.792-186.951C-219.592-186.951-223.092-188.351-225.992-190.651C-228.992-188.151-232.692-186.751-236.592-186.751ZM-193.292-192.751C-194.949-192.751-196.292-191.408-196.292-189.751C-196.292-188.094-194.949-186.751-193.292-186.751C-191.635-186.751-190.292-188.094-190.292-189.751C-190.292-191.408-191.635-192.751-193.292-192.751Z" fill="#71c2ff" fill-rule="nonzero" opacity="1" stroke="none" vectornator:layerName="path 1"/>
</g>
</g>
</g>
</g>
<clipPath id="ArtboardFrame">
<rect height="780" width="780" x="0" y="0"/>
</clipPath>
<g clip-path="url(#ArtboardFrame)" id="Layer-4" vectornator:layerName="Layer 4" visibility="hidden">
<text fill="#3f4a54" font-family="MunaBold" font-size="95" opacity="1" stroke="none" text-anchor="start" transform="matrix(1 0 0 1 68.9295 771.025)" vectornator:layerName="Text 1" vectornator:width="647.651" x="0" y="0">
<tspan font-family="Helvetica-Bold" textLength="390.483" x="0" y="92"><![CDATA[Bridging]]></tspan>
<tspan textLength="19.668" x="390.483" y="92"><![CDATA[ ]]></tspan>
<tspan font-family="Helvetica-Bold" textLength="237.5" x="410.151" y="92"><![CDATA[Hope]]></tspan>
</text>
<path d="M7.24477 819.025C7.24477 810.74 13.9605 804.025 22.2448 804.025C30.529 804.025 37.2448 810.74 37.2448 819.025C37.2448 827.309 30.529 834.025 22.2448 834.025C13.9605 834.025 7.24477 827.309 7.24477 819.025Z" fill="#dc7d3f" fill-rule="nonzero" opacity="1" stroke="none" vectornator:layerName="Oval 1"/>
<path d="M742.755 819.025C742.755 810.74 749.471 804.025 757.755 804.025C766.039 804.025 772.755 810.74 772.755 819.025C772.755 827.309 766.039 834.025 757.755 834.025C749.471 834.025 742.755 827.309 742.755 819.025Z" fill="#dc7d3f" fill-rule="nonzero" opacity="1" stroke="none" vectornator:layerName="Oval 2"/>
</g>
<g id="Layer-5" vectornator:layerName="Layer 5"/>
</svg>
