<?xml version="1.0" encoding="UTF-8" standalone="no"?>
<!DOCTYPE svg PUBLIC "-//W3C//DTD SVG 1.1//EN" "http://www.w3.org/Graphics/SVG/1.1/DTD/svg11.dtd">
<!-- Created with Vectornator (http://vectornator.io/) -->
<svg height="900.0pt" stroke-miterlimit="10" style="fill-rule:nonzero;clip-rule:evenodd;stroke-linecap:round;stroke-linejoin:round;" version="1.1" viewBox="0 0 850 900" width="850.0pt" xml:space="preserve" xmlns="http://www.w3.org/2000/svg" xmlns:vectornator="http://vectornator.io" xmlns:xlink="http://www.w3.org/1999/xlink">
<defs>
<path d="M63.7917 390.944C63.7917 197.644 220.492 40.9435 413.792 40.9435C607.091 40.9435 763.792 197.644 763.792 390.944C763.792 584.243 607.091 740.944 413.792 740.944C220.492 740.944 63.7917 584.243 63.7917 390.944Z" id="Fill"/>
<linearGradient gradientTransform="matrix(4.1638e-14 680 680 -4.1638e-14 413.792 50.9435)" gradientUnits="userSpaceOnUse" id="LinearGradient" x1="0" x2="1" y1="0" y2="0">
<stop offset="0.601877" stop-color="#7cb5f3"/>
<stop offset="1" stop-color="#a17559"/>
</linearGradient>
<path d="M413.792 165.578C288.774 165.578 187.426 266.925 187.426 391.944C187.426 516.962 288.774 618.309 413.792 618.309C538.81 618.309 640.157 516.962 640.157 391.944C640.157 266.925 538.81 165.578 413.792 165.578Z" id="Fill_2"/>
<path d="M413.792 50.9435C226.015 50.9435 73.7917 203.167 73.7917 390.944C73.7917 578.72 226.015 730.944 413.792 730.944C601.569 730.944 753.792 578.72 753.792 390.944C753.792 203.167 601.569 50.9435 413.792 50.9435Z" id="Fill_3"/>
<linearGradient gradientTransform="matrix(4.1638e-14 680 680 -4.1638e-14 413.792 50.9435)" gradientUnits="userSpaceOnUse" id="LinearGradient_2" x1="0" x2="1" y1="0" y2="0">
<stop offset="0.601877" stop-color="#7cb5f3" stop-opacity="0"/>
<stop offset="1" stop-color="#a17559" stop-opacity="0"/>
</linearGradient>
<path d="M128.564 124.964C137.02 115.895 145.808 107.32 154.891 99.2399C303.579-33.0397 531.313-32.7241 679.771 105.716C837.298 252.612 845.916 499.396 699.02 656.923C552.123 814.45 305.339 823.068 147.812 676.171C2.63203 540.789-16.0669 320.563 96.8861 163.558C106.492 150.206 117.05 137.311 128.564 124.964Z" id="TextPath"/>
</defs>
<g id="Layer-2" vectornator:layerName="Layer 2">
<g opacity="1" vectornator:layerName="Oval 1">
<use fill="#3395ff" fill-opacity="0" fill-rule="nonzero" stroke="none" xlink:href="#Fill"/>
<mask height="740" id="StrokeMask" maskUnits="userSpaceOnUse" width="740" x="43.7917" y="20.9435">
<rect fill="#ffffff" height="740" stroke="none" width="740" x="43.7917" y="20.9435"/>
<use fill="#000000" fill-rule="evenodd" stroke="none" xlink:href="#Fill"/>
</mask>
<use fill="none" mask="url(#StrokeMask)" stroke="#dc7d3f" stroke-linecap="butt" stroke-linejoin="round" stroke-width="40" xlink:href="#Fill"/>
</g>
</g>
<g id="Layer-2-copy" vectornator:layerName="Layer 2 copy">
<path d="M413.792 50.9435C226.015 50.9435 73.7917 203.167 73.7917 390.944C73.7917 578.72 226.015 730.944 413.792 730.944C601.569 730.944 753.792 578.72 753.792 390.944C753.792 203.167 601.569 50.9435 413.792 50.9435Z" fill="url(#LinearGradient)" fill-rule="nonzero" opacity="1" stroke="none" vectornator:layerName="Oval 1"/>
</g>
<g id="Layer-2-copy-copy" vectornator:layerName="Layer 2 copy copy">
<g opacity="1" vectornator:layerName="Oval 1">
<use fill="#dd6430" fill-rule="nonzero" stroke="none" xlink:href="#Fill_2"/>
<mask height="468.731" id="StrokeMask_2" maskUnits="userSpaceOnUse" width="468.731" x="179.426" y="157.578">
<rect fill="#ffffff" height="468.731" stroke="none" width="468.731" x="179.426" y="157.578"/>
<use fill="#000000" fill-rule="evenodd" stroke="none" xlink:href="#Fill_2"/>
</mask>
<use fill="none" mask="url(#StrokeMask_2)" stroke="#3f4a54" stroke-linecap="butt" stroke-linejoin="round" stroke-opacity="0.9" stroke-width="16" xlink:href="#Fill_2"/>
</g>
</g>
<g id="Layer-2-copy-copy-copy" vectornator:layerName="Layer 2 copy copy copy">
<path d="M413.792 275.48C349.471 275.48 297.328 327.622 297.328 391.944C297.328 456.265 349.471 508.407 413.792 508.407C478.113 508.407 530.255 456.265 530.255 391.944C530.255 327.622 478.113 275.48 413.792 275.48Z" fill="#ffbd47" fill-rule="nonzero" opacity="1" stroke="none" vectornator:layerName="Oval 1"/>
</g>
<g id="Layer-2-copy-copy_2" vectornator:layerName="Layer 2 copy copy"/>
<g id="Layer-3" vectornator:layerName="Layer 3">
<g opacity="1" vectornator:layerName="Group 1">
<use fill="url(#LinearGradient_2)" fill-rule="nonzero" opacity="1" stroke="none" vectornator:layerName="Oval 1" xlink:href="#Fill_3"/>
<clipPath clip-rule="nonzero" id="ClipPath">
<use xlink:href="#Fill_3"/>
</clipPath>
<g clip-path="url(#ClipPath)">
<path d="M156.941 617.309L675.661 617.309L675.661 776.557L156.941 776.557L156.941 617.309Z" fill="#20567e" fill-rule="nonzero" opacity="1" stroke="none" vectornator:layerName="Rectangle 1"/>
<g opacity="1" vectornator:layerName="Bridge">
<path d="M765.243 355.092C700.096 333.055 659.522 292.928 659.522 249.512C659.522 243.921 652.093 239.645 642.378 239.645C632.663 239.645 625.234 243.921 625.234 249.512C625.234 316.61 530.371 371.209 413.792 371.209C297.213 371.209 202.349 316.61 202.349 249.512C202.349 243.921 194.92 239.645 185.205 239.645C175.491 239.645 168.061 243.921 168.061 249.512C168.061 292.928 127.487 333.055 62.3403 354.763C54.3398 357.395 51.4825 363.644 56.0542 368.249C60.6259 372.853 71.4838 374.498 79.4843 371.867C128.059 355.75 165.204 330.424 185.205 301.151C204.635 329.108 238.923 352.79 282.926 368.907C282.926 369.564 282.355 370.222 282.355 370.88L282.355 472.842C282.355 478.434 289.784 482.709 299.499 482.709C309.213 482.709 316.643 478.434 316.643 472.842L316.643 379.432C341.216 385.681 368.646 389.628 396.648 390.615L396.648 473.171C396.648 478.763 404.077 483.038 413.792 483.038C423.507 483.038 430.936 478.763 430.936 473.171L430.936 390.615C458.937 389.628 486.368 385.681 510.941 379.432L510.941 473.171C510.941 478.763 518.37 483.038 528.085 483.038C537.8 483.038 545.229 478.763 545.229 473.171L545.229 371.209C545.229 370.551 545.229 369.893 544.657 369.235C588.66 353.119 622.948 329.437 642.378 301.48C662.379 330.753 699.525 356.079 748.099 372.196C756.1 374.827 766.957 373.182 771.529 368.578C776.101 363.644 773.244 357.724 765.243 355.092Z" fill="#3f4a54" fill-rule="nonzero" opacity="1" stroke="none" vectornator:layerName="path"/>
<path d="M150.917 249.512L219.493 249.512L219.493 512.64L150.917 512.64L150.917 249.512Z" fill="#ffffff" fill-rule="nonzero" opacity="1" stroke="none" vectornator:layerName="path"/>
<path d="M150.917 249.512L219.493 249.512L219.493 512.64L150.917 512.64L150.917 249.512ZM116.63 512.64L177.205 512.64L253.781 512.64L253.781 545.531L253.781 545.531L116.63 545.531L116.63 512.64ZM573.802 512.64L634.377 512.64L710.954 512.64L710.954 545.531L710.954 545.531L573.802 545.531L573.802 512.64ZM608.09 249.512L676.666 249.512L676.666 512.64L608.09 512.64L608.09 249.512Z" fill="#ffffff" fill-rule="nonzero" opacity="1" stroke="none" vectornator:layerName="path"/>
<path d="M756.671 502.773L693.81 502.773L693.81 249.512C693.81 243.921 686.381 239.645 676.666 239.645L659.522 239.645L659.522 193.597C659.522 188.006 652.093 183.73 642.378 183.73C632.663 183.73 625.234 188.006 625.234 193.597L625.234 239.645L608.09 239.645C598.375 239.645 590.946 243.921 590.946 249.512L590.946 502.773L236.637 502.773L236.637 249.512C236.637 243.921 229.208 239.645 219.493 239.645L202.349 239.645L202.349 193.597C202.349 188.006 194.92 183.73 185.205 183.73C175.491 183.73 168.061 188.006 168.061 193.597L168.061 239.645L150.917 239.645C141.203 239.645 133.774 243.921 133.774 249.512L133.774 502.773L70.9123 502.773C61.1974 502.773 53.7683 507.049 53.7683 512.64C53.7683 518.232 61.1974 522.508 70.9123 522.508L99.4856 522.508L99.4856 542.242C99.4856 547.834 106.915 552.109 116.63 552.109C126.344 552.109 133.774 547.834 133.774 542.242L133.774 522.508L236.637 522.508L236.637 542.242C236.637 547.834 244.066 552.109 253.781 552.109C263.496 552.109 270.925 547.834 270.925 542.242L270.925 522.508L556.658 522.508L556.658 542.242C556.658 547.834 564.087 552.109 573.802 552.109C583.517 552.109 590.946 547.834 590.946 542.242L590.946 522.508L693.81 522.508L693.81 545.531C693.81 551.123 701.239 555.399 710.954 555.399C720.669 555.399 728.098 551.123 728.098 545.531L728.098 522.508L756.671 522.508C766.386 522.508 773.815 518.232 773.815 512.64C773.815 507.049 766.386 502.773 756.671 502.773ZM202.349 502.773L168.061 502.773L168.061 259.379L202.349 259.379L202.349 502.773ZM659.522 502.773L625.234 502.773L625.234 259.379L659.522 259.379L659.522 502.773Z" fill="#3f4a54" fill-rule="nonzero" opacity="1" stroke="none" vectornator:layerName="path"/>
<path d="M497.797 598.157C497.226 598.157 497.226 598.157 496.654 598.157C474.367 598.157 453.794 593.552 437.222 585.658C420.649 593.552 400.077 597.828 377.789 597.828C356.074 597.828 334.929 593.552 318.357 585.658C301.784 593.552 281.212 597.828 258.924 597.828C236.637 597.828 216.065 593.552 199.492 585.658C182.92 593.552 162.347 597.828 140.06 597.828C111.486 597.828 85.1989 590.592 67.4835 577.764C61.7688 573.489 62.9118 567.239 70.3408 563.95C77.7699 560.661 88.6277 561.319 94.3424 565.595C105.772 573.489 122.344 578.093 140.06 578.093C157.775 578.093 174.919 573.489 185.777 565.595C189.206 563.292 193.777 561.977 198.921 561.977C204.064 561.977 209.207 563.292 212.064 565.595C223.494 573.489 240.066 578.093 257.782 578.093C275.497 578.093 292.641 573.489 303.499 565.595C306.928 563.292 311.499 561.977 316.643 561.977C321.786 561.977 326.929 563.292 329.786 565.595C341.216 573.489 357.788 578.093 375.503 578.093C393.219 578.093 410.363 573.489 421.221 565.595C424.65 563.292 429.221 561.977 434.364 561.977C439.508 561.977 444.651 563.292 447.508 565.595C458.937 573.818 475.51 578.422 493.797 578.422L494.368 578.422C512.084 578.422 529.228 573.818 540.657 565.924L545.229 565.266C548.658 562.964 553.229 561.648 558.373 561.648C563.516 561.648 568.087 562.964 571.516 565.266C582.946 573.16 599.518 577.764 617.233 577.764C617.805 577.764 617.805 577.764 618.376 577.764C636.092 577.764 652.093 573.16 663.522 565.266C669.237 560.99 680.095 560.332 687.524 563.621C694.953 566.91 696.096 573.16 690.381 577.436C672.666 590.263 646.378 597.499 617.805 597.499C617.233 597.499 617.233 597.499 616.662 597.499C594.946 597.499 574.945 592.894 558.373 585.329C541.229 593.552 520.084 598.157 497.797 598.157ZM745.242 578.422C735.773 578.422 728.098 582.84 728.098 588.29C728.098 593.739 735.773 598.157 745.242 598.157C754.71 598.157 762.386 593.739 762.386 588.29C762.386 582.84 754.71 578.422 745.242 578.422Z" fill="#71c2ff" fill-rule="nonzero" opacity="1" stroke="none" vectornator:layerName="path"/>
<path d="M476.91 615.309C476.338 615.309 476.338 615.309 475.765 615.309C453.43 615.309 435.765 610.782 424.215 603.02C402.549 610.782 379.193 614.985 356.858 614.985C335.097 614.985 316.647 610.782 305.097 603.02C283.432 610.782 260.076 614.985 237.741 614.985C215.407 614.985 197.53 610.782 185.98 603.02C164.314 610.782 140.958 614.985 118.624 614.985C89.9898 614.985 68.283 607.871 58.7492 595.259C55.7621 591.055 60.9117 584.911 70.4641 581.677C80.0164 578.444 90.4758 579.09 93.4629 583.294C99.8585 591.055 113.516 595.583 131.269 595.583C149.022 595.583 169.153 591.055 185.092 583.294C190.003 581.031 195.427 579.737 200.581 579.737C205.736 579.737 210.047 581.031 211.435 583.294C217.83 591.055 231.488 595.583 249.241 595.583C266.994 595.583 287.125 591.055 303.064 583.294C307.975 581.031 313.399 579.737 318.553 579.737C323.708 579.737 328.019 581.031 329.407 583.294C335.802 591.055 349.46 595.583 367.213 595.583C384.966 595.583 405.097 591.055 421.036 583.294C425.947 581.031 431.371 579.737 436.525 579.737C441.679 579.737 445.991 581.031 447.379 583.294C453.564 591.379 467.221 595.906 485.547 595.906L486.119 595.906C503.872 595.906 524.003 591.379 540.515 583.618L545.518 582.971C550.429 580.707 555.853 579.414 561.008 579.414C566.162 579.414 569.9 580.707 571.861 582.971C578.257 590.732 591.914 595.259 609.667 595.259C610.239 595.259 610.239 595.259 610.812 595.259C628.565 595.259 647.551 590.732 664.062 582.971C672.529 578.767 683.831 578.12 689.169 581.354C694.506 584.588 691.647 590.732 683.181 594.936C657.208 607.548 626.228 614.662 597.595 614.662C597.022 614.662 597.022 614.662 596.449 614.662C574.687 614.662 557.594 610.135 545.834 602.697C523.384 610.782 499.245 615.309 476.91 615.309ZM737.526 595.906C728.037 595.906 717.514 600.25 714.023 605.607C710.531 610.965 715.392 615.309 724.881 615.309C734.369 615.309 744.892 610.965 748.383 605.607C751.875 600.25 747.014 595.906 737.526 595.906Z" fill="#1c6eab" fill-rule="nonzero" opacity="1" stroke="none" vectornator:layerName="path 3"/>
<path d="M510.055 630.581C509.475 630.581 509.475 630.581 508.896 630.581C486.29 630.581 462.833 626.053 441.583 618.292C429.215 626.053 410.754 630.257 388.149 630.257C366.123 630.257 342.271 626.053 321.021 618.292C308.653 626.053 290.192 630.257 267.587 630.257C244.981 630.257 221.709 626.053 200.459 618.292C188.091 626.053 169.63 630.257 147.025 630.257C118.044 630.257 87.3098 623.143 62.1243 610.531C53.9224 606.327 51.5656 600.183 57.2502 596.949C62.9348 593.715 74.3178 594.362 82.5197 598.566C98.5535 606.327 117.953 610.854 135.922 610.854C153.89 610.854 168.688 606.327 175.26 598.566C177.442 596.302 181.339 595.009 186.555 595.009C191.772 595.009 197.729 596.302 201.922 598.566C217.956 606.327 237.356 610.854 255.324 610.854C273.293 610.854 288.091 606.327 294.662 598.566C296.845 596.302 300.741 595.009 305.958 595.009C311.175 595.009 317.131 596.302 321.325 598.566C337.359 606.327 356.759 610.854 374.727 610.854C392.695 610.854 407.493 606.327 414.065 598.566C416.247 596.302 420.144 595.009 425.361 595.009C430.577 595.009 436.534 596.302 440.728 598.566C456.946 606.651 476.346 611.178 494.894 611.178L495.474 611.178C513.442 611.178 528.24 606.651 535.391 598.889L539.658 598.243C541.841 595.979 545.737 594.685 550.954 594.685C556.171 594.685 561.548 595.979 566.321 598.243C582.355 606.004 601.755 610.531 619.723 610.531C620.303 610.531 620.303 610.531 620.882 610.531C638.851 610.531 652.489 606.004 659.641 598.243C663.031 594.039 673.674 593.392 683.06 596.626C692.445 599.86 697.12 606.004 693.73 610.208C682.979 622.82 660.387 629.934 631.406 629.934C630.826 629.934 630.826 629.934 630.247 629.934C608.221 629.934 585.343 625.407 564.278 617.969C551.516 626.053 532.66 630.581 510.055 630.581ZM749.929 611.178C740.325 611.178 735.026 615.521 738.092 620.879C741.158 626.237 751.429 630.581 761.032 630.581C770.636 630.581 775.935 626.237 772.869 620.879C769.803 615.521 759.533 611.178 749.929 611.178Z" fill="#1781d0" fill-rule="nonzero" opacity="1" stroke="none" vectornator:layerName="path 4"/>
<path d="M1691.05 164.578C1688.36 164.578 1688.36 164.578 1685.66 164.578C1580.57 164.578 1483.55 126.851 1405.4 62.1747C1327.25 126.851 1230.24 161.883 1125.14 161.883C1022.74 161.883 923.027 126.851 844.877 62.1747C766.727 126.851 669.713 161.883 564.615 161.883C459.517 161.883 362.503 126.851 284.353 62.1747C206.203 126.851 109.189 161.883 4.09029 161.883C-130.651 161.883-254.613 102.597-338.153-2.50124C-365.101-37.534-359.712-88.7358-324.679-115.684C-289.646-142.632-238.444-137.243-211.496-102.21C-157.599-37.534-79.4494 0.193589 4.09029 0.193589C87.63 0.193589 168.475-37.534 219.677-102.21C235.846-121.074 257.404-131.853 281.658-131.853C305.911-131.853 330.165-121.074 343.639-102.21C397.535-37.534 475.685 0.193589 559.225 0.193589C642.765 0.193589 723.61-37.534 774.812-102.21C790.981-121.074 812.539-131.853 836.793-131.853C861.046-131.853 885.3-121.074 898.774-102.21C952.67-37.534 1030.82 0.193589 1114.36 0.193589C1197.9 0.193589 1278.74-37.534 1329.95-102.21C1346.12-121.074 1367.67-131.853 1391.93-131.853C1416.18-131.853 1440.43-121.074 1453.91-102.21C1507.81-34.8392 1585.96 2.88842 1672.19 2.88842L1674.88 2.88842C1758.42 2.88842 1839.27-34.8392 1893.17-99.5151L1914.72-104.905C1930.89-123.769 1952.45-134.548 1976.71-134.548C2000.96-134.548 2022.52-123.769 2038.69-104.905C2092.58-40.2289 2170.73-2.50124 2254.27-2.50124C2256.97-2.50124 2256.97-2.50124 2259.66-2.50124C2343.2-2.50124 2418.66-40.2289 2472.55-104.905C2499.5-139.938 2550.7-145.327 2585.74-118.379C2620.77-91.4306 2626.16-40.2289 2599.21-5.19607C2515.67 99.9023 2391.71 159.189 2256.97 159.189C2254.27 159.189 2254.27 159.189 2251.58 159.189C2149.17 159.189 2054.86 121.461 1976.71 59.4798C1895.86 126.851 1796.15 164.578 1691.05 164.578ZM2857.91 2.88842C2813.27 2.88842 2777.07 39.0839 2777.07 83.7333C2777.07 128.383 2813.27 164.578 2857.91 164.578C2902.56 164.578 2938.76 128.383 2938.76 83.7333C2938.76 39.0839 2902.56 2.88842 2857.91 2.88842Z" fill="#71c2ff" fill-rule="nonzero" opacity="1" stroke="none" vectornator:layerName="path 2"/>
<path d="M-221.508-186.056C-221.608-186.056-221.608-186.056-221.708-186.056C-225.608-186.056-229.208-187.456-232.108-189.856C-235.008-187.456-238.608-186.156-242.508-186.156C-246.308-186.156-250.008-187.456-252.908-189.856C-255.808-187.456-259.408-186.156-263.308-186.156C-267.208-186.156-270.808-187.456-273.708-189.856C-276.608-187.456-280.208-186.156-284.108-186.156C-289.108-186.156-293.708-188.356-296.808-192.256C-297.808-193.556-297.608-195.456-296.308-196.456C-295.008-197.456-293.108-197.256-292.108-195.956C-290.108-193.556-287.208-192.156-284.108-192.156C-281.008-192.156-278.008-193.556-276.108-195.956C-275.508-196.656-274.708-197.056-273.808-197.056C-272.908-197.056-272.008-196.656-271.508-195.956C-269.508-193.556-266.608-192.156-263.508-192.156C-260.408-192.156-257.408-193.556-255.508-195.956C-254.908-196.656-254.108-197.056-253.208-197.056C-252.308-197.056-251.408-196.656-250.908-195.956C-248.908-193.556-246.008-192.156-242.908-192.156C-239.808-192.156-236.808-193.556-234.908-195.956C-234.308-196.656-233.508-197.056-232.608-197.056C-231.708-197.056-230.808-196.656-230.308-195.956C-228.308-193.456-225.408-192.056-222.208-192.056L-222.108-192.056C-219.008-192.056-216.008-193.456-214.008-195.856L-213.208-196.056C-212.608-196.756-211.808-197.156-210.908-197.156C-210.008-197.156-209.208-196.756-208.608-196.056C-206.608-193.656-203.708-192.256-200.608-192.256C-200.508-192.256-200.508-192.256-200.408-192.256C-197.308-192.256-194.508-193.656-192.508-196.056C-191.508-197.356-189.608-197.556-188.308-196.556C-187.008-195.556-186.808-193.656-187.808-192.356C-190.908-188.456-195.508-186.256-200.508-186.256C-200.608-186.256-200.608-186.256-200.708-186.256C-204.508-186.256-208.008-187.656-210.908-189.956C-213.908-187.456-217.608-186.056-221.508-186.056ZM-178.208-192.056C-179.865-192.056-181.208-190.713-181.208-189.056C-181.208-187.4-179.865-186.056-178.208-186.056C-176.551-186.056-175.208-187.4-175.208-189.056C-175.208-190.713-176.551-192.056-178.208-192.056Z" fill="#71c2ff" fill-rule="nonzero" opacity="1" stroke="none" vectornator:layerName="path 1"/>
</g>
</g>
</g>
</g>
<clipPath id="ArtboardFrame">
<rect height="900" width="850" x="0" y="0"/>
</clipPath>
<g clip-path="url(#ArtboardFrame)" id="Layer-2-copy_2" vectornator:layerName="Layer 2 copy" visibility="hidden">
<text fill="#3f4a54" font-family="MunaBold" font-size="95" opacity="1" stroke="none" transform="matrix(1 0 0 1 0 0)" vectornator:layerName="Curve 1">
<textPath method="align" startOffset="0pt" xlink:href="#TextPath">
<tspan font-family="Helvetica-Bold" textLength="390.483" x="0"><![CDATA[Bridging]]></tspan>
<tspan textLength="19.668" x="390.483"><![CDATA[ ]]></tspan>
<tspan font-family="Helvetica-Bold" textLength="237.5" x="410.151"><![CDATA[Hope]]></tspan>
</textPath>
</text>
</g>
<g id="Layer-4" vectornator:layerName="Layer 4">
<text fill="#3f4a54" font-family="MunaBold" font-size="95" opacity="1" stroke="none" text-anchor="start" transform="matrix(1 0 0 1 95.2212 780.776)" vectornator:layerName="Text 1" vectornator:width="647.651" x="0" y="0">
<tspan font-family="Helvetica-Bold" textLength="390.483" x="0" y="92"><![CDATA[Bridging]]></tspan>
<tspan textLength="19.668" x="390.483" y="92"><![CDATA[ ]]></tspan>
<tspan font-family="Helvetica-Bold" textLength="237.5" x="410.151" y="92"><![CDATA[Hope]]></tspan>
</text>
<path d="M33.5365 828.776C33.5365 820.492 40.2522 813.776 48.5365 813.776C56.8207 813.776 63.5365 820.492 63.5365 828.776C63.5365 837.06 56.8207 843.776 48.5365 843.776C40.2522 843.776 33.5365 837.06 33.5365 828.776Z" fill="#dc7d3f" fill-rule="nonzero" opacity="1" stroke="none" vectornator:layerName="Oval 1"/>
<path d="M769.047 828.776C769.047 820.492 775.763 813.776 784.047 813.776C792.331 813.776 799.047 820.492 799.047 828.776C799.047 837.06 792.331 843.776 784.047 843.776C775.763 843.776 769.047 837.06 769.047 828.776Z" fill="#dc7d3f" fill-rule="nonzero" opacity="1" stroke="none" vectornator:layerName="Oval 2"/>
</g>
<g id="Layer-5" vectornator:layerName="Layer 5"/>
</svg>
